<svg width="59" height="40" viewBox="0 0 59 40" fill="none" xmlns="http://www.w3.org/2000/svg">
<path d="M0 4C0 1.79086 1.79086 0 4 0H55C57.2091 0 59 1.79086 59 4V36C59 38.2091 57.2091 40 55 40H4C1.79086 40 0 38.2091 0 36V4Z" fill="#D5D5D5"/>
<path d="M0 4H59V10H0V4Z" fill="#626262"/>
<rect x="33" y="16" width="16" height="7" fill="#FBFBFB"/>
<path d="M34.6929 21.1973L35.7725 19.7148L34.1504 19.2314L34.4028 18.4258L36.0249 19.022L35.9766 17.1743H36.793L36.7393 19.0542L38.3398 18.458L38.5869 19.2798L36.938 19.7686L37.9961 21.2241L37.3301 21.7236L36.3364 20.1768L35.3643 21.686L34.6929 21.1973ZM39.4302 21.1973L40.5098 19.7148L38.8877 19.2314L39.1401 18.4258L40.7622 19.022L40.7139 17.1743H41.5303L41.4766 19.0542L43.0771 18.458L43.3242 19.2798L41.6753 19.7686L42.7334 21.2241L42.0674 21.7236L41.0737 20.1768L40.1016 21.686L39.4302 21.1973ZM44.1675 21.1973L45.2471 19.7148L43.625 19.2314L43.8774 18.4258L45.4995 19.022L45.4512 17.1743H46.2676L46.2139 19.0542L47.8145 18.458L48.0615 19.2798L46.4126 19.7686L47.4707 21.2241L46.8047 21.7236L45.811 20.1768L44.8389 21.686L44.1675 21.1973Z" fill="#626262"/>
</svg>
