<svg width="20.833374" height="20.833344" viewBox="0 0 20.8334 20.8333" fill="none" xmlns="http://www.w3.org/2000/svg" xmlns:xlink="http://www.w3.org/1999/xlink">
	<desc>
			Created with Pixso.
	</desc>
	<defs/>
	<path id="Vector" d="M6.25 16.66C5.1 16.66 4.17 17.6 4.17 18.75C4.17 19.89 5.1 20.83 6.25 20.83C7.39 20.83 8.33 19.89 8.33 18.75C8.33 17.6 7.39 16.66 6.25 16.66ZM0 0L0 2.08L2.08 2.08L5.83 9.98L4.42 12.54C4.26 12.83 4.16 13.17 4.16 13.54C4.16 14.68 5.1 15.62 6.25 15.62L18.75 15.62L18.75 13.54L6.68 13.54C6.54 13.54 6.42 13.42 6.42 13.28L6.45 13.15L7.39 11.45L15.15 11.45C15.93 11.45 16.62 11.03 16.97 10.38L20.7 3.62C20.79 3.47 20.83 3.3 20.83 3.12C20.83 2.55 20.36 2.08 19.79 2.08L4.38 2.08L3.4 0L0 0ZM16.66 16.66C15.52 16.66 14.59 17.6 14.59 18.75C14.59 19.89 15.52 20.83 16.66 20.83C17.81 20.83 18.75 19.89 18.75 18.75C18.75 17.6 17.81 16.66 16.66 16.66Z" fill="#EEF1F4" fill-opacity="1.000000" fill-rule="nonzero"/>
</svg>
