<svg width="13.235352" height="11.764709" viewBox="0 0 13.2354 11.7647" fill="none" xmlns="http://www.w3.org/2000/svg" xmlns:xlink="http://www.w3.org/1999/xlink">
	<desc>
			Created with Pixso.
	</desc>
	<defs/>
	<path id="shape" d="M6.61 1.96L5.7 1.01C5.07 0.36 4.22 0 3.34 0C1.49 0 0 1.55 0 3.46C0 4.38 0.35 5.26 0.97 5.91L6.61 11.76L8.82 9.47L12.25 5.91C12.88 5.26 13.23 4.38 13.23 3.46C13.23 1.55 11.73 0 9.89 0C9 0 8.15 0.36 7.52 1.01L6.61 1.96Z" fill="#C3C6C9" fill-opacity="1.000000" fill-rule="nonzero"/>
	<path id="shape" d="M6.61 1.96L7.52 1.01C8.15 0.36 9 0 9.89 0C11.73 0 13.23 1.55 13.23 3.46C13.23 4.38 12.88 5.26 12.25 5.91L8.82 9.47L6.61 11.76L0.97 5.91C0.35 5.26 0 4.38 0 3.46C0 1.55 1.49 0 3.34 0C4.22 0 5.07 0.36 5.7 1.01L6.61 1.96Z" stroke="#FFFFFF" stroke-opacity="0" stroke-width="2.059752" stroke-linejoin="round"/>
</svg>
