<svg width="24.000000" height="24.000000" viewBox="0 0 24 24" fill="none" xmlns="http://www.w3.org/2000/svg" xmlns:xlink="http://www.w3.org/1999/xlink">
	<desc>
			Created with Pixso.
	</desc>
	<defs>
		<clipPath id="clip19_2076">
			<rect id="Icons" rx="-0.500000" width="23.000000" height="23.000000" transform="translate(0.500000 0.500000)" fill="white" fill-opacity="0"/>
		</clipPath>
	</defs>
	<g clip-path="url(#clip19_2076)">
		<path id="Vector" d="M19 3C20.1 3 21 3.89 21 5L21 19C21 20.1 20.1 21 19 21L5 21C3.89 21 3 20.1 3 19L3 5C3 3.89 3.89 3 5 3L19 3Z" stroke="#667080" stroke-opacity="1.000000" stroke-width="2.000000" stroke-linejoin="round"/>
		<path id="Vector" d="M8.5 10C7.67 10 7 9.32 7 8.5C7 7.67 7.67 7 8.5 7C9.32 7 10 7.67 10 8.5C10 9.32 9.32 10 8.5 10Z" stroke="#667080" stroke-opacity="1.000000" stroke-width="2.000000" stroke-linejoin="round"/>
		<path id="Vector" d="M21 15L16 10L5 21" stroke="#667080" stroke-opacity="1.000000" stroke-width="2.000000" stroke-linejoin="round" stroke-linecap="round"/>
	</g>
</svg>
