<svg width="20.000000" height="20.000000" viewBox="0 0 20 20" fill="none" xmlns="http://www.w3.org/2000/svg" xmlns:xlink="http://www.w3.org/1999/xlink">
	<desc>
			Created with Pixso.
	</desc>
	<defs/>
	<path id="search_icon" d="M19.75 18.6L16.31 15.24L16.23 15.12C16.08 14.97 15.88 14.89 15.66 14.89C15.45 14.89 15.25 14.97 15.1 15.12C12.17 17.8 7.67 17.94 4.58 15.46C1.48 12.97 0.75 8.63 2.87 5.31C4.99 1.98 9.3 0.71 12.95 2.34C16.59 3.96 18.44 7.98 17.26 11.72C17.18 11.99 17.25 12.29 17.44 12.49C17.64 12.7 17.94 12.79 18.22 12.73C18.5 12.66 18.73 12.46 18.81 12.19C20.22 7.74 18.09 2.96 13.81 0.94C9.53 -1.09 4.38 0.25 1.68 4.08C-1.01 7.91 -0.43 13.1 3.04 16.27C6.52 19.45 11.84 19.67 15.58 16.79L18.62 19.77C18.94 20.07 19.45 20.07 19.76 19.77C20.07 19.46 20.07 18.96 19.76 18.65L19.75 18.6Z" fill="#000000" fill-opacity="0.600000" fill-rule="nonzero"/>
</svg>
