<svg width="66.000000" height="66.000000" viewBox="0 0 66 66" fill="none" xmlns="http://www.w3.org/2000/svg" xmlns:xlink="http://www.w3.org/1999/xlink">
	<desc>
			Created with Pixso.
	</desc>
	<defs/>
	<rect id="add" rx="19.500000" width="65.000000" height="65.000000" transform="translate(0.500000 0.500000)" fill="#EEF1F4" fill-opacity="1.000000"/>
	<rect id="add_icon" rx="-0.500000" width="12.000000" height="12.000000" transform="translate(27.000000 27.000000)" fill="#FFFFFF" fill-opacity="0"/>
	<path id="Vector" d="M22.16 35L43.83 35C45.02 35 46 34.1 46 33C46 31.89 45.02 31 43.83 31L22.16 31C20.97 31 20 31.89 20 33C20 34.1 20.97 35 22.16 35Z" fill="#393F48" fill-opacity="1.000000" fill-rule="evenodd"/>
	<path id="Vector" d="M35 43.83L35 22.16C35 20.97 34.1 20 33 20C31.89 20 31 20.97 31 22.16L31 43.83C31 45.02 31.89 46 33 46C34.1 46 35 45.02 35 43.83Z" fill="#393F48" fill-opacity="1.000000" fill-rule="evenodd"/>
</svg>
